<svg width="660" height="268" xmlns="http://www.w3.org/2000/svg" xmlns:xlink="http://www.w3.org/1999/xlink" xml:space="preserve" overflow="hidden">
<style type="text/css">
	<!-- Blue -->
	<!--.st0{fill:#EEF7FF;stroke:#0563BB;stroke-width:2.2917;stroke-miterlimit:8;}-->
	<!--.st1{fill-rule:evenodd;fill:#FFFFFF;stroke:#0563BB;stroke-width:2.2917;stroke-miterlimit:8;}-->
	<!--.st2{fill-rule:evenodd;fill:#0563BB;}-->
	<!--.st3{fill-rule:evenodd;fill:#EEF7FF;stroke:#0563BB;stroke-width:3.4375;stroke-miterlimit:8;}-->
	<!--.st4{fill-rule:evenodd;fill:#FFFFFF;stroke:#0563BB;stroke-width:3.4375;stroke-miterlimit:8;}-->
	<!-- Gray -->
	.st0{fill:#F2F3F5;stroke:#45505B;stroke-width:2.2917;stroke-miterlimit:8;}
	.st1{fill-rule:evenodd;fill:#FFFFFF;stroke:#45505B;stroke-width:2.2917;stroke-miterlimit:8;}
	.st2{fill-rule:evenodd;fill:#45505B;}
	.st3{fill-rule:evenodd;fill:#F2F3F5;stroke:#45505B;stroke-width:3.4375;stroke-miterlimit:8;}
	.st4{fill-rule:evenodd;fill:#FFFFFF;stroke:#45505B;stroke-width:3.4375;stroke-miterlimit:8;}
</style>
    <g transform="matrix(1 0 0 1 0 -31)">
        <rect class="st0" x="165" y="32" width="330" height="229"/>
        <path class="st1" d="M212.511 57.0001 447.031 57.0001 447.414 60.7957C449.648 71.7096 459.307 79.9195 470.885 79.9195L471 79.9079 471 213.092 470.885 213.081C459.307 213.081 449.648 221.291 447.414 232.205L447.031 236 212.511 236 212.128 232.205C210.213 222.85 202.843 215.482 193.485 213.567L189 213.115 189 79.8848 193.485 79.4329C202.843 77.5186 210.213 70.1504 212.128 60.7957Z"/>
        <path class="st2" d="M228 91C228 88.2385 230.239 85.9999 233 85.9999L427 85.9999C429.762 85.9999 432 88.2385 432 91L432 91C432 93.7615 429.762 96.0001 427 96.0001L233 95.9999C230.239 95.9999 228 93.7613 228 90.9998Z"/>
        <path class="st2" d="M228 118C228 115.239 230.239 113 233 113L427 113C429.762 113 432 115.239 432 118L432 118C432 120.762 429.762 123 427 123L233 123C230.239 123 228 120.761 228 118Z"/>
        <path class="st2" d="M228 145C228 142.239 230.239 140 233 140L427 140C429.762 140 432 142.239 432 145L432 145C432 147.761 429.762 150 427 150L233 150C230.239 150 228 147.761 228 145Z"/>
        <path class="st2" d="M292 180C292 177.239 294.238 175 297 175L363 175C365.762 175 368 177.239 368 180L368 180C368 182.761 365.762 185 363 185L297 185C294.238 185 292 182.761 292 180Z"/>
        <path class="st2" d="M403.328 236 450.672 236 474 285.517 455.23 282.785 445.386 299 427 259.973 408.613 299 398.77 282.785 380 285.517Z"/>
        <path class="st3" d="M380.5 217 387.064 206.281 386.797 193.75 397.899 187.714 404 176.73 416.665 176.995 427.5 170.5 438.335 176.995 451 176.73 457.101 187.714 468.203 193.75 467.935 206.281 474.5 217 467.935 227.72 468.203 240.25 457.101 246.286 451 257.27 438.335 257.005 427.5 263.5 416.665 257.005 404 257.27 397.899 246.286 386.797 240.25 387.064 227.72Z"/>
        <path class="st4" d="M401.5 217C401.5 202.364 413.141 190.5 427.5 190.5 441.859 190.5 453.5 202.364 453.5 217 453.5 231.635 441.859 243.5 427.5 243.5 413.141 243.5 401.5 231.635 401.5 217Z"/>
    </g>
</svg>
